HIERARCHY
ROOT SpineBase
{
  OFFSET 0.000000 0.000000 0.000000
  CHANNELS 6 Xposition Yposition Zposition Zrotation Xrotation Yrotation
  JOINT SpineMid
  {
    OFFSET -0.000000 29.936357 0.000000
    CHANNELS 3 Zrotation Xrotation Yrotation
    JOINT SpineShoulder
    {
      OFFSET 0.183773 22.066219 -0.766049
      CHANNELS 3 Zrotation Xrotation Yrotation
      JOINT Neck
      {
        OFFSET 0.146107 7.238105 -0.546439
        CHANNELS 3 Zrotation Xrotation Yrotation
        JOINT Head
        {
          OFFSET -0.982771 10.923046 0.732550
          CHANNELS 3 Zrotation Xrotation Yrotation
          End Site
          {
            OFFSET 0 0 0
          }
        }
      }
      JOINT ShoulderLeft
      {
        OFFSET -15.848722 -6.531653 -6.827586
        CHANNELS 3 Zrotation Xrotation Yrotation
        JOINT ElbowLeft
        {
          OFFSET -8.598619 -21.935742 4.618092
          CHANNELS 3 Zrotation Xrotation Yrotation
          JOINT WristLeft
          {
            OFFSET -1.091797 -17.606262 3.419963
            CHANNELS 3 Zrotation Xrotation Yrotation
            JOINT HandLeft
            {
              OFFSET 0.587654 -2.752498 2.306430
              CHANNELS 3 Zrotation Xrotation Yrotation
              JOINT HandTipLeft
              {
                OFFSET -0.613057 -6.066142 1.314327
                CHANNELS 3 Zrotation Xrotation Yrotation
                End Site
                {
                  OFFSET 0 0 0
                }
              }
              JOINT ThumbLeft
              {
                OFFSET 2.787180 0.701706 -0.820377
                CHANNELS 3 Zrotation Xrotation Yrotation
                End Site
                {
                  OFFSET 0 0 0
                }
              }
            }
          }
        }
      }
      JOINT ShoulderRight
      {
        OFFSET 16.030718 -7.835573 -3.134432
        CHANNELS 3 Zrotation Xrotation Yrotation
        JOINT ElbowRight
        {
          OFFSET 3.349361 -22.741272 8.077719
          CHANNELS 3 Zrotation Xrotation Yrotation
          JOINT WristRight
          {
            OFFSET -1.934795 -20.638481 8.807733
            CHANNELS 3 Zrotation Xrotation Yrotation
            JOINT HandRight
            {
              OFFSET 0.221766 -5.014230 1.239898
              CHANNELS 3 Zrotation Xrotation Yrotation
              JOINT HandTipRight
              {
                OFFSET 1.715371 -7.179044 0.083781
                CHANNELS 3 Zrotation Xrotation Yrotation
                End Site
                {
                  OFFSET 0 0 0
                }
              }
              JOINT ThumbRight
              {
                OFFSET 0.931888 -2.630430 -5.222363
                CHANNELS 3 Zrotation Xrotation Yrotation
                End Site
                {
                  OFFSET 0 0 0
                }
              }
            }
          }
        }
      }
    }
  }
  JOINT HipLeft
  {
    OFFSET -4.895229 1.555204 -4.635630
    CHANNELS 3 Zrotation Xrotation Yrotation
    JOINT KneeLeft
    {
      OFFSET -15.095471 -32.229678 5.144509
      CHANNELS 3 Zrotation Xrotation Yrotation
      JOINT AnkleLeft
      {
        OFFSET -6.472893 -30.818095 -3.699822
        CHANNELS 3 Zrotation Xrotation Yrotation
        JOINT FootLeft
        {
          OFFSET 1.521008 -4.419943 -11.085452
          CHANNELS 3 Zrotation Xrotation Yrotation
          End Site
          {
            OFFSET 0 0 0
          }
        }
      }
    }
  }
  JOINT HipRight
  {
    OFFSET 6.790107 -0.234008 -1.445557
    CHANNELS 3 Zrotation Xrotation Yrotation
    JOINT KneeRight
    {
      OFFSET 9.722982 -28.462055 21.454333
      CHANNELS 3 Zrotation Xrotation Yrotation
      JOINT AnkleRight
      {
        OFFSET 1.140495 -27.384838 12.378156
        CHANNELS 3 Zrotation Xrotation Yrotation
        JOINT FootRight
        {
          OFFSET 0.935096 -4.565670 -11.337953
          CHANNELS 3 Zrotation Xrotation Yrotation
          End Site
          {
            OFFSET 0 0 0
          }
        }
      }
    }
  }
}
MOTION
Frames: 16
Frame Time: 0.033333
-68.327511 73.562353 215.480811 -0.692480 1.019785 -8.872987 -0.073189 0.148343 8.844185 -0.001516 0.142347 -0.046340 -0.456517 1.209546 0.398137 0.000000 0.000000 0.000000 0.745276 -1.318914 0.091401 0.821279 -0.098159 0.166370 -2.108662 -3.156976 -1.928956 6.115285 16.888975 0.573473 0.000000 0.000000 0.000000 0.000000 0.000000 0.000000 0.745276 -1.318914 0.091401 0.122338 -1.514095 0.194697 6.607725 18.244965 1.073693 -5.883632 -13.727458 -2.431816 0.000000 0.000000 0.000000 0.000000 0.000000 0.000000 1.547343 0.264605 8.539785 -0.368357 0.090894 0.046559 -0.909872 -0.879370 1.387615 0.000000 0.000000 0.000000 3.824854 -1.967252 10.510733 -4.118500 2.589057 -2.058891 1.413589 -0.948049 0.608602 0.000000 0.000000 0.000000
-68.297336 73.669505 215.570925 -0.789259 1.113760 -8.736705 -0.117049 0.184563 8.703694 -0.023462 0.149842 -0.055283 -0.682680 1.023754 0.432997 0.000000 0.000000 0.000000 0.902819 -1.462279 0.109112 0.828373 -0.490507 0.194800 -2.104437 -2.818067 -1.944887 4.778478 15.872240 0.659883 0.000000 0.000000 0.000000 0.000000 0.000000 0.000000 0.019486 -1.565071 -0.243128 0.985038 -0.834846 0.457998 6.888649 14.082983 1.290506 -7.462668 -12.870490 -3.182087 0.000000 0.000000 0.000000 0.000000 0.000000 0.000000 1.682533 0.310626 8.356083 -0.452860 0.076335 0.078271 -0.461966 -1.246875 0.312475 0.000000 0.000000 0.000000 2.991844 -1.201040 10.094480 -2.659932 0.942092 -1.584451 0.697699 -0.348955 0.302467 0.000000 0.000000 0.000000
-68.260035 73.792546 215.686308 -0.904578 1.232557 -8.583259 -0.165127 0.223663 8.545614 -0.045618 0.156808 -0.065507 -0.901137 0.747247 0.462143 0.000000 0.000000 0.000000 1.083327 -1.633028 0.130079 0.887616 -1.129864 0.250879 -2.622857 -0.549260 -2.021405 3.295527 11.543937 0.995283 0.000000 0.000000 0.000000 0.000000 0.000000 0.000000 0.002116 -1.548571 -0.271644 1.081163 -0.079608 0.372457 7.079469 10.453898 1.599691 -7.654393 -12.053652 -3.400298 0.000000 0.000000 0.000000 0.000000 0.000000 0.000000 1.787200 0.358849 8.132964 -0.505443 -0.018473 0.145501 -0.282189 -0.296035 0.349418 0.000000 0.000000 0.000000 1.343093 0.722601 9.611424 0.298420 -3.819073 -0.657919 -0.884984 2.071991 -0.300272 0.000000 0.000000 0.000000
-68.201846 73.922010 215.803304 -1.042795 1.358975 -8.386015 -0.202322 0.259902 8.343966 -0.059231 0.162424 -0.075554 -1.184396 0.467825 0.492862 0.000000 0.000000 0.000000 1.268430 -1.805144 0.152042 1.165886 -1.815216 0.356649 -3.954811 2.203081 -2.507179 3.707547 7.526126 1.703875 0.000000 0.000000 0.000000 0.000000 0.000000 0.000000 0.032826 -1.503253 -0.278207 1.236461 -0.296241 0.397776 7.089197 7.992439 1.637084 -8.071800 -10.622114 -3.448550 0.000000 0.000000 0.000000 0.000000 0.000000 0.000000 1.904584 0.417573 7.856992 -0.557735 -0.135740 0.224462 -0.335950 -1.365279 0.323363 0.000000 0.000000 0.000000 0.272511 1.947713 9.176103 2.314660 -6.696646 0.123788 -1.862188 3.444889 -0.651572 0.000000 0.000000 0.000000
-68.126621 74.072877 215.929733 -1.213582 1.520690 -8.261800 -0.235416 0.292496 8.215255 -0.068123 0.168042 -0.086729 -1.530376 0.299911 0.543211 0.000000 0.000000 0.000000 1.477994 -2.008148 0.177843 1.516854 -2.244485 0.462198 -5.645991 5.688534 -2.960819 3.694041 -0.790823 2.587669 0.000000 0.000000 0.000000 0.000000 0.000000 0.000000 0.046176 -1.492315 -0.298712 1.433668 -0.508832 0.439187 6.375581 3.023514 1.549677 -8.966918 -8.984368 -3.660493 0.000000 0.000000 0.000000 0.000000 0.000000 0.000000 2.016195 0.426105 7.656337 -0.505242 -0.402346 0.333063 -0.327176 -1.256877 0.299904 0.000000 0.000000 0.000000 0.038241 2.294672 8.981944 3.118410 -7.888684 0.462439 -2.285601 4.105107 -0.793789 0.000000 0.000000 0.000000
-68.008582 74.234545 216.029875 -1.411056 1.706560 -8.090691 -0.248472 0.309157 8.040463 -0.066390 0.167651 -0.097347 -1.815410 0.279249 0.605234 0.000000 0.000000 0.000000 1.686611 -2.210255 0.204262 1.557927 -2.169670 0.465384 -6.597355 5.927183 -3.626519 6.078856 1.876658 3.461072 0.000000 0.000000 0.000000 0.000000 0.000000 0.000000 0.118911 -1.401055 -0.282935 1.570668 -0.801978 0.448789 6.258719 3.299529 1.521768 -9.016416 -8.731453 -3.550127 0.000000 0.000000 0.000000 0.000000 0.000000 0.000000 2.215635 0.482797 7.392800 -0.607882 -0.610125 0.441836 -0.229083 -1.270546 0.292098 0.000000 0.000000 0.000000 -0.146478 2.565027 8.727247 3.218840 -8.046634 0.461503 -2.035819 3.779470 -0.706719 0.000000 0.000000 0.000000
-67.888150 74.437031 216.130794 -1.669422 1.906952 -8.197412 -0.241500 0.304592 8.144017 -0.058368 0.161600 -0.108921 -2.423134 0.487881 0.715319 0.000000 0.000000 0.000000 1.121354 -1.813120 -0.195174 3.031797 -3.050552 1.054223 -10.596463 8.115513 -5.959922 9.849676 0.089762 6.447717 0.000000 0.000000 0.000000 0.000000 0.000000 0.000000 0.299118 -1.275634 -0.232248 1.635890 -1.116240 0.430244 5.516388 4.292374 1.357790 -7.802672 -8.083633 -2.986238 0.000000 0.000000 0.000000 0.000000 0.000000 0.000000 2.610533 0.510449 7.457256 -0.827476 -0.614575 0.468984 -0.144452 -1.435992 0.317550 0.000000 0.000000 0.000000 0.616106 1.764576 8.881425 2.468848 -7.085881 0.180780 -1.690116 3.514064 -0.574063 0.000000 0.000000 0.000000
-67.606007 74.873404 216.387803 -2.067660 2.298219 -7.780061 -0.222453 0.303600 7.724556 -0.036940 0.144491 -0.126710 -2.290390 0.732501 0.826913 0.000000 0.000000 0.000000 1.007588 -2.261750 -0.240407 3.358935 -1.288875 0.956879 -7.053439 0.553379 -4.656759 7.820451 8.365764 4.008329 0.000000 0.000000 0.000000 0.000000 0.000000 0.000000 0.470669 -0.842836 -0.136927 1.827887 -1.917740 0.394174 3.587644 3.711099 0.941569 -6.666836 -10.385925 -3.213553 0.000000 0.000000 0.000000 0.000000 0.000000 0.000000 3.331930 0.414763 7.018885 -1.017047 -0.802653 0.499322 -0.673372 -1.447285 1.385293 0.000000 0.000000 0.000000 1.760335 0.256514 8.436659 1.153764 -4.294952 -0.200893 -1.319487 1.928155 0.744663 0.000000 0.000000 0.000000
-67.421227 74.577080 216.636240 -2.216113 2.307287 -7.912967 -0.264486 0.333695 7.854360 -0.052095 0.159910 -0.136051 -1.565012 0.196430 0.759219 0.000000 0.000000 0.000000 0.670606 -2.045130 -0.459438 3.810341 -2.090339 1.214547 -7.277546 2.239687 -4.630078 9.875858 8.936286 4.256219 0.000000 0.000000 0.000000 0.000000 0.000000 0.000000 1.560371 -0.699006 0.262782 0.925867 -2.128861 0.032250 1.797574 4.407831 0.575464 -4.233678 -12.080444 -2.940923 0.000000 0.000000 0.000000 0.000000 0.000000 0.000000 3.347170 -0.000878 7.323286 -1.319997 0.383434 0.227812 -0.145318 -2.223897 1.387763 0.000000 0.000000 0.000000 3.111278 -1.607192 8.601355 -0.645659 -0.277830 -0.583222 -0.388200 -0.054114 0.954517 0.000000 0.000000 0.000000
-66.661787 73.675151 216.816472 -1.857549 2.691281 -8.360772 -0.156198 0.236230 8.312811 0.007285 0.091312 -0.115382 -0.651415 -1.262086 0.500707 0.000000 0.000000 0.000000 -0.592731 -1.707703 -0.900254 2.591994 -1.285223 1.085707 0.811217 -6.323804 -0.598311 8.057203 8.726810 1.223379 0.000000 0.000000 0.000000 0.000000 0.000000 0.000000 1.424411 -1.309678 0.300973 0.547689 -1.725042 -0.050990 -0.065875 7.379947 0.319915 -2.069219 -23.135404 -4.692994 0.000000 0.000000 0.000000 0.000000 0.000000 0.000000 1.524756 -1.796512 8.004396 -0.459359 3.072744 -0.215202 2.336045 -3.742190 -2.324189 0.000000 0.000000 0.000000 3.041049 -3.838692 8.408439 -1.811669 3.687486 -0.314622 1.234537 -2.129706 0.487962 0.000000 0.000000 0.000000
-66.878169 72.391820 217.267378 -1.573091 1.926416 -8.182315 -0.064886 0.062293 8.135647 0.048953 -0.005198 -0.085628 0.761752 -2.121501 0.201004 0.000000 0.000000 0.000000 -1.040861 0.651472 -1.426097 0.016474 -1.771741 0.972428 14.965831 -19.009118 7.826472 -0.906271 14.143027 -3.547271 0.000000 0.000000 0.000000 0.000000 0.000000 0.000000 2.517348 -2.217049 0.517110 -0.074157 0.152519 0.076185 -2.450901 5.377877 -0.466625 -3.246374 -19.323453 -4.266788 0.000000 0.000000 0.000000 0.000000 0.000000 0.000000 -0.395229 -2.182472 7.883358 1.255265 6.786016 -0.923743 2.520956 -8.667201 -2.722791 0.000000 0.000000 0.000000 3.905915 -5.806873 7.982579 -3.989370 10.966324 -0.058329 2.946577 -6.803548 -0.059777 0.000000 0.000000 0.000000
-67.250528 70.529308 218.256442 -0.865919 -0.502257 -10.482914 -0.019357 0.065180 10.452987 0.043708 -0.032021 -0.026883 2.378974 -2.029855 -0.257819 0.000000 0.000000 0.000000 -2.155608 3.925209 -1.812944 -4.062300 -1.541138 0.255971 21.634437 -28.894630 9.298379 -1.922360 17.942924 -1.585010 0.000000 0.000000 0.000000 0.000000 0.000000 0.000000 3.797364 -2.907128 0.660545 -1.031908 2.215343 0.369254 -3.482059 3.406071 -1.145508 -2.189399 -18.019695 -4.218392 0.000000 0.000000 0.000000 0.000000 0.000000 0.000000 -5.522859 -1.495102 9.849607 10.764169 10.816804 -2.475229 -5.360771 -12.303113 5.280126 0.000000 0.000000 0.000000 4.655871 -5.079331 10.556808 -4.905094 14.240999 -0.001428 3.390233 -8.695455 -2.394351 0.000000 0.000000 0.000000
-69.047751 68.860176 218.104069 -0.248761 -3.426173 -12.349201 -0.066213 0.124588 12.360708 -0.041449 -0.015718 0.025593 4.054524 -1.795201 -0.809919 0.000000 0.000000 0.000000 -2.675643 6.771484 -1.769842 -6.243367 -5.383744 -0.346456 20.898853 -23.616994 6.325518 -0.971404 13.468414 -0.158212 0.000000 0.000000 0.000000 0.000000 0.000000 0.000000 6.584146 -4.076207 1.097540 -2.636161 4.649971 0.682519 -10.889157 -2.699810 -3.698240 2.157563 -13.414362 -3.420803 0.000000 0.000000 0.000000 0.000000 0.000000 0.000000 -9.012436 -0.577717 12.075146 17.497580 11.705020 -3.720236 -9.510066 -5.717507 6.971382 0.000000 0.000000 0.000000 4.812755 -2.579933 12.851218 -3.270468 11.942606 0.070850 1.473263 -6.480748 -5.891875 0.000000 0.000000 0.000000
-71.853347 67.549313 216.835328 0.430438 -6.463021 -14.168334 -0.001794 0.048089 14.260499 0.000010 -0.033673 0.094329 4.439725 -0.598650 -1.349725 0.000000 0.000000 0.000000 -4.116154 9.340043 -1.522734 -6.907222 -11.365254 -0.890941 26.048724 -20.296171 7.426813 -5.173213 8.385977 -0.205994 0.000000 0.000000 0.000000 0.000000 0.000000 0.000000 10.115339 -5.301900 1.711531 -6.973446 5.960396 0.596439 -17.031743 -7.944400 -5.919822 4.940185 -7.186527 -2.775383 0.000000 0.000000 0.000000 0.000000 0.000000 0.000000 -11.438992 0.646022 14.581736 21.939957 11.164117 -4.557816 -13.131770 -1.852957 8.515682 0.000000 0.000000 0.000000 5.374676 -0.374699 15.254517 -2.584344 9.760732 -0.059157 0.009562 -3.845541 -9.121229 0.000000 0.000000 0.000000
-74.898295 67.050222 214.545833 1.460370 -9.321658 -16.749780 -0.090472 0.078909 16.997577 -0.096651 0.012279 0.164879 4.267697 0.779708 -1.794921 0.000000 0.000000 0.000000 -5.790590 9.930144 -0.637742 -5.962482 -16.397298 -1.373981 33.752507 -26.006197 10.047404 -13.087299 5.133409 2.367596 0.000000 0.000000 0.000000 0.000000 0.000000 0.000000 13.962970 -6.702036 2.450578 -12.744905 6.200739 0.630573 -23.512078 -9.824600 -7.643246 9.356112 -1.459266 -1.779559 0.000000 0.000000 0.000000 0.000000 0.000000 0.000000 -13.485775 1.591989 18.002710 24.169296 8.044510 -4.295808 -15.685904 2.083697 9.753602 0.000000 0.000000 0.000000 5.617283 1.880902 18.571755 -1.964780 6.143503 -0.201391 -1.111950 1.171547 -12.951914 0.000000 0.000000 0.000000
-78.274457 67.830331 210.531837 2.733870 -11.163723 -19.703881 -0.222302 0.110366 20.163088 -0.214006 0.078862 0.233097 3.418186 2.097670 -2.000626 0.000000 0.000000 0.000000 -7.750545 9.528211 0.206590 -1.939038 -30.911294 -0.782022 24.514907 -24.146911 -0.233753 -11.662583 21.797072 5.353109 0.000000 0.000000 0.000000 0.000000 0.000000 0.000000 16.023472 -7.215112 2.932982 -18.912575 3.727879 0.475192 -30.409518 -12.046896 -9.231499 18.296766 4.636793 -2.037272 0.000000 0.000000 0.000000 0.000000 0.000000 0.000000 -14.755379 2.365536 21.474211 24.202325 1.680439 -2.410311 -17.127289 2.455596 9.845520 0.000000 0.000000 0.000000 3.284667 3.771916 21.580649 -0.857103 2.170535 0.195492 -1.702147 2.712315 -14.946611 0.000000 0.000000 0.000000
